<svg width="2493" height="781" viewBox="0 0 2493 781" fill="none" xmlns="http://www.w3.org/2000/svg">
<path d="M657.071 734.703C664.191 739.375 675.67 744.308 688.443 744.308C700.353 744.308 707.775 740.544 707.775 733.232C707.775 727.867 704.15 724.795 693.966 722.156L677.698 718.089C660.135 713.719 652.411 704.244 652.411 690.831C652.411 674.347 664.623 661.107 691.075 661.107C705.315 661.107 718.951 665.045 726.546 668.982L720.72 687.629C713.471 683.389 701.086 679.755 690.341 679.755C678.431 679.755 673.469 683.389 673.469 689.057C673.469 694.465 677.094 696.499 684.214 698.532L702.381 703.638C720.246 708.57 728.962 717.483 728.962 731.588C728.962 750.235 711.831 762.912 688.011 762.912C673.641 762.912 658.668 757.98 652.281 754.302L657.071 734.703Z" fill="#006A4D"/>
<path d="M855.183 630.865C862.131 630.865 866.791 633.504 866.791 640.903C866.791 648.345 862.131 651.114 855.183 651.114C848.063 651.114 843.273 648.345 843.273 640.903C843.273 633.461 848.063 630.865 855.183 630.865ZM844.999 662.493H865.324V761.571H844.999V662.493Z" fill="#006A4D"/>
<path d="M1076.64 749.457C1067.49 756.726 1049.62 762.999 1034.48 762.999C1005.26 762.999 981.875 744.049 981.875 712.162C981.875 679.972 1005.26 661.021 1034.48 661.021C1050.49 661.021 1062.96 666.386 1072.84 674.434L1063.39 690.01C1055.71 683.606 1046.52 679.929 1034.91 679.929C1016.87 679.929 1002.93 691.567 1002.93 712.118C1002.93 732.367 1016.87 744.005 1035.77 744.005C1043.63 744.005 1050.88 741.972 1056.27 738.77V720.555H1030.25V702.946H1076.59V749.457H1076.64Z" fill="#006A4D"/>
<path d="M1239.45 661.021C1268.66 661.021 1290.46 682.871 1290.46 712.162C1290.46 741.15 1268.66 762.999 1239.45 762.999C1210.54 762.999 1188.75 741.15 1188.75 712.162C1188.75 682.871 1210.54 661.021 1239.45 661.021ZM1239.58 743.919C1257.75 743.919 1270.39 730.074 1270.39 712.162C1270.39 693.947 1257.75 680.405 1239.58 680.405C1221.71 680.405 1208.77 693.947 1208.77 712.162C1208.77 730.074 1221.71 743.919 1239.58 743.919Z" fill="#006A4D"/>
<path d="M1407.05 662.449H1450.5C1474.76 662.449 1489.9 672.357 1489.9 694.639C1489.9 710.344 1478.73 722.026 1463.88 725.098L1495.43 758.153V761.485H1472.64L1439.67 725.79H1427.46V761.485H1407.14V662.449H1407.05ZM1427.38 680.231V709.825H1452.66C1461.94 709.825 1468.63 704.287 1468.63 695.115C1468.63 685.38 1461.94 680.275 1452.66 680.275H1427.38V680.231Z" fill="#006A4D"/>
<path d="M1649.87 680.404V761.528H1629.54V680.404H1597.01V662.492H1681.28V680.404H1649.87Z" fill="#006A4D"/>
<path d="M1814.28 662.449H1838.1L1876.33 761.528H1855.7L1848.15 741.712H1803.27L1795.55 761.528H1774.92L1814.28 662.449ZM1808.45 726.569H1843.02L1826.14 682.741L1808.45 726.569Z" fill="#006A4D"/>
<path d="M587.984 467.018H870.069V402.335H658.236V316.106H831.793V251.467H658.236V174.194H870.069V109.512H587.984V467.018Z" fill="#006A4D"/>
<path d="M292.263 350.286L91.9944 109.512H28V467.018H101.402V226.762L301.713 467.018H365.664V109.512H292.263V350.286Z" fill="#006A4D"/>
<path fill-rule="evenodd" clip-rule="evenodd" d="M1289.16 167.057C1227.15 167.057 1176.84 217.505 1176.84 279.721C1176.84 340.531 1224.9 390.099 1284.97 392.268C1282.33 392.157 1279.71 391.969 1277.12 391.693L1313.63 370.06L1306.67 390.983C1360.41 382.556 1401.53 335.965 1401.53 279.721C1401.53 217.505 1351.21 167.057 1289.16 167.057ZM1272.55 387.929L1283.85 380.833L1265.08 369.801L1272.55 387.929ZM1283.94 342.283L1265.82 331.034L1273.24 349.552L1283.94 342.283ZM1284.24 303.474L1265.21 291.965L1273.11 311.521L1284.24 303.474ZM1313.93 311.868L1295.37 323.42L1306.68 330.861L1313.93 311.868ZM1300.38 371.618L1265.56 350.417L1271.77 368.286L1289.85 378.454L1300.38 371.618ZM1313.58 330.775L1279.15 351.672L1290.11 359.72L1308.06 347.562L1313.58 330.775ZM1300.64 332.462L1265.56 312.257L1271.55 329.736L1289.07 340.38L1300.64 332.462ZM1313.67 292.398L1278.67 313.468L1290.28 320.78L1307.33 310.44L1313.67 292.398ZM1300.94 293.263H1277.6L1289.85 302.046L1300.94 293.263ZM1313.93 349.509L1295.37 361.061L1306.68 368.459L1313.93 349.509ZM1266.85 214.736C1270.43 225.639 1289.2 280.024 1289.2 280.024C1289.2 280.024 1307.97 225.595 1311.56 214.736C1313.02 210.279 1313.67 206.472 1310.82 202.751L1289.2 174.369L1267.58 202.751C1264.78 206.472 1265.38 210.279 1266.85 214.736ZM1295.81 286.211H1395.53L1384.18 272.149L1383.9 271.801C1374.77 260.422 1366.28 249.826 1341.2 262.761L1295.81 286.211ZM1324.93 224.946L1293.61 281.235L1346.47 247.315C1352.12 243.68 1358.29 240.695 1366.06 240.695L1383.71 240.652L1348.49 219.452C1339.39 213.957 1328.99 217.634 1324.93 224.946ZM1194.18 272.149L1182.83 286.211H1282.56L1237.16 262.761C1212.14 249.856 1203.67 260.375 1194.53 271.724C1194.41 271.866 1194.3 272.008 1194.18 272.149ZM1231.9 247.315L1284.76 281.235L1253.47 224.946C1249.42 217.634 1239.02 213.957 1229.91 219.452L1194.7 240.652L1212.35 240.695C1220.12 240.738 1226.29 243.724 1231.9 247.315Z" fill="#006A4D"/>
<path d="M1289.16 19C1145.76 19 1029.12 135.948 1029.12 279.72C1029.12 423.493 1145.76 540.44 1289.16 540.44C1432.55 540.44 1549.19 423.493 1549.19 279.72C1549.19 135.948 1432.55 19 1289.16 19ZM1289.16 471.172C1183.87 471.172 1098.25 385.289 1098.25 279.763C1098.25 174.195 1183.91 88.3552 1289.16 88.3552C1394.45 88.3552 1480.11 174.238 1480.11 279.763C1480.11 385.289 1394.45 471.172 1289.16 471.172Z" fill="#006A4D"/>
<path d="M1830.63 399.22L1726.81 109.512H1646.59L1784.46 467.018H1876.76L2018.34 109.512H1938.12L1830.63 399.22Z" fill="#006A4D"/>
<path d="M2328.17 109.512H2242.17L2100.07 467.018H2174.51L2202.3 395.499H2364.29L2391.56 467.018H2466L2328.17 109.512ZM2221.24 340.854L2285.19 182.631L2345.99 340.854H2221.24Z" fill="#006A4D"/>
</svg>
